<svg version="1.1" viewBox="0.0 0.0 960.0 720.0" fill="none" stroke="none" stroke-linecap="square" stroke-miterlimit="10" xmlns:xlink="http://www.w3.org/1999/xlink" xmlns="http://www.w3.org/2000/svg"><clipPath id="p.0"><path d="m0 0l960.0 0l0 720.0l-960.0 0l0 -720.0z" clip-rule="nonzero"/></clipPath><g clip-path="url(#p.0)"><path fill="#000000" fill-opacity="0.0" d="m0 0l960.0 0l0 720.0l-960.0 0z" fill-rule="evenodd"/><path fill="#c9daf8" d="m268.3176 199.90837l0 0c0 -6.349228 5.147064 -11.496292 11.496277 -11.496292l46.834198 0l0 0c3.0490112 0 5.973114 1.2112122 8.129089 3.3671875c2.1559753 2.15596 3.3671875 5.0800934 3.3671875 8.129105l0 45.983795c0 6.3492126 -5.147064 11.496292 -11.496277 11.496292l-46.834198 0c-6.3492126 0 -11.496277 -5.1470795 -11.496277 -11.496292z" fill-rule="evenodd"/><path stroke="#000000" stroke-width="1.0" stroke-linejoin="round" stroke-linecap="butt" d="m268.3176 199.90837l0 0c0 -6.349228 5.147064 -11.496292 11.496277 -11.496292l46.834198 0l0 0c3.0490112 0 5.973114 1.2112122 8.129089 3.3671875c2.1559753 2.15596 3.3671875 5.0800934 3.3671875 8.129105l0 45.983795c0 6.3492126 -5.147064 11.496292 -11.496277 11.496292l-46.834198 0c-6.3492126 0 -11.496277 -5.1470795 -11.496277 -11.496292z" fill-rule="evenodd"/><path fill="#c9daf8" d="m371.7953 199.90837l0 0c0 -6.349228 5.147064 -11.496292 11.496277 -11.496292l46.834198 0l0 0c3.0490112 0 5.973114 1.2112122 8.129089 3.3671875c2.1559753 2.15596 3.3671875 5.0800934 3.3671875 8.129105l0 45.983795c0 6.3492126 -5.147064 11.496292 -11.496277 11.496292l-46.834198 0c-6.3492126 0 -11.496277 -5.1470795 -11.496277 -11.496292z" fill-rule="evenodd"/><path stroke="#000000" stroke-width="1.0" stroke-linejoin="round" stroke-linecap="butt" d="m371.7953 199.90837l0 0c0 -6.349228 5.147064 -11.496292 11.496277 -11.496292l46.834198 0l0 0c3.0490112 0 5.973114 1.2112122 8.129089 3.3671875c2.1559753 2.15596 3.3671875 5.0800934 3.3671875 8.129105l0 45.983795c0 6.3492126 -5.147064 11.496292 -11.496277 11.496292l-46.834198 0c-6.3492126 0 -11.496277 -5.1470795 -11.496277 -11.496292z" fill-rule="evenodd"/><path fill="#c9daf8" d="m475.27298 199.90837l0 0c0 -6.349228 5.147064 -11.496292 11.496277 -11.496292l46.834198 0l0 0c3.0490112 0 5.9731445 1.2112122 8.129089 3.3671875c2.1560059 2.15596 3.3671875 5.0800934 3.3671875 8.129105l0 45.983795c0 6.3492126 -5.1470337 11.496292 -11.496277 11.496292l-46.834198 0c-6.3492126 0 -11.496277 -5.1470795 -11.496277 -11.496292z" fill-rule="evenodd"/><path stroke="#000000" stroke-width="1.0" stroke-linejoin="round" stroke-linecap="butt" d="m475.27298 199.90837l0 0c0 -6.349228 5.147064 -11.496292 11.496277 -11.496292l46.834198 0l0 0c3.0490112 0 5.9731445 1.2112122 8.129089 3.3671875c2.1560059 2.15596 3.3671875 5.0800934 3.3671875 8.129105l0 45.983795c0 6.3492126 -5.1470337 11.496292 -11.496277 11.496292l-46.834198 0c-6.3492126 0 -11.496277 -5.1470795 -11.496277 -11.496292z" fill-rule="evenodd"/><path fill="#c9daf8" d="m578.7507 199.90837l0 0c0 -6.349228 5.1470337 -11.496292 11.496277 -11.496292l46.834167 0l0 0c3.0490112 0 5.9731445 1.2112122 8.12915 3.3671875c2.1559448 2.15596 3.3671875 5.0800934 3.3671875 8.129105l0 45.983795c0 6.3492126 -5.1470947 11.496292 -11.496338 11.496292l-46.834167 0c-6.349243 0 -11.496277 -5.1470795 -11.496277 -11.496292z" fill-rule="evenodd"/><path stroke="#000000" stroke-width="1.0" stroke-linejoin="round" stroke-linecap="butt" d="m578.7507 199.90837l0 0c0 -6.349228 5.1470337 -11.496292 11.496277 -11.496292l46.834167 0l0 0c3.0490112 0 5.9731445 1.2112122 8.12915 3.3671875c2.1559448 2.15596 3.3671875 5.0800934 3.3671875 8.129105l0 45.983795c0 6.3492126 -5.1470947 11.496292 -11.496338 11.496292l-46.834167 0c-6.349243 0 -11.496277 -5.1470795 -11.496277 -11.496292z" fill-rule="evenodd"/><path fill="#c9daf8" d="m268.3176 302.51993l0 0c0 -6.349243 5.147064 -11.496307 11.496277 -11.496307l253.79483 0c3.0490112 0 5.9731445 1.2112122 8.129089 3.3671875c2.1560059 2.1559753 3.3671875 5.0801086 3.3671875 8.12912l0 45.983765c0 6.349243 -5.1470337 11.496307 -11.496277 11.496307l-253.79483 0c-6.3492126 0 -11.496277 -5.147064 -11.496277 -11.496307z" fill-rule="evenodd"/><path stroke="#000000" stroke-width="1.0" stroke-linejoin="round" stroke-linecap="butt" d="m268.3176 302.51993l0 0c0 -6.349243 5.147064 -11.496307 11.496277 -11.496307l253.79483 0c3.0490112 0 5.9731445 1.2112122 8.129089 3.3671875c2.1560059 2.1559753 3.3671875 5.0801086 3.3671875 8.12912l0 45.983765c0 6.349243 -5.1470337 11.496307 -11.496277 11.496307l-253.79483 0c-6.3492126 0 -11.496277 -5.147064 -11.496277 -11.496307z" fill-rule="evenodd"/><path fill="#c9daf8" d="m578.7507 302.51993l0 0c0 -6.349243 5.1470337 -11.496307 11.496277 -11.496307l46.834167 0l0 0c3.0490112 0 5.9731445 1.2112122 8.12915 3.3671875c2.1559448 2.1559753 3.3671875 5.0801086 3.3671875 8.12912l0 45.983765c0 6.349243 -5.1470947 11.496307 -11.496338 11.496307l-46.834167 0c-6.349243 0 -11.496277 -5.147064 -11.496277 -11.496307z" fill-rule="evenodd"/><path stroke="#000000" stroke-width="1.0" stroke-linejoin="round" stroke-linecap="butt" d="m578.7507 302.51993l0 0c0 -6.349243 5.1470337 -11.496307 11.496277 -11.496307l46.834167 0l0 0c3.0490112 0 5.9731445 1.2112122 8.12915 3.3671875c2.1559448 2.1559753 3.3671875 5.0801086 3.3671875 8.12912l0 45.983765c0 6.349243 -5.1470947 11.496307 -11.496338 11.496307l-46.834167 0c-6.349243 0 -11.496277 -5.147064 -11.496277 -11.496307z" fill-rule="evenodd"/><path fill="#c9daf8" d="m268.3176 405.13147l0 0c0 -6.349243 5.147064 -11.496307 11.496277 -11.496307l150.29877 0c3.0490112 0 5.973114 1.2112122 8.129089 3.3671875c2.1559753 2.1559753 3.3671875 5.0801086 3.3671875 8.12912l0 45.983795c0 6.3492126 -5.147064 11.496277 -11.496277 11.496277l-150.29877 0l0 0c-6.3492126 0 -11.496277 -5.147064 -11.496277 -11.496277z" fill-rule="evenodd"/><path stroke="#000000" stroke-width="1.0" stroke-linejoin="round" stroke-linecap="butt" d="m268.3176 405.13147l0 0c0 -6.349243 5.147064 -11.496307 11.496277 -11.496307l150.29877 0c3.0490112 0 5.973114 1.2112122 8.129089 3.3671875c2.1559753 2.1559753 3.3671875 5.0801086 3.3671875 8.12912l0 45.983795c0 6.3492126 -5.147064 11.496277 -11.496277 11.496277l-150.29877 0l0 0c-6.3492126 0 -11.496277 -5.147064 -11.496277 -11.496277z" fill-rule="evenodd"/><path fill="#c9daf8" d="m475.27298 405.13147l0 0c0 -6.349243 5.147064 -11.496307 11.496277 -11.496307l150.29874 0c3.0490112 0 5.9731445 1.2112122 8.12915 3.3671875c2.1559448 2.1559753 3.3671875 5.0801086 3.3671875 8.12912l0 45.983795c0 6.3492126 -5.1470947 11.496277 -11.496338 11.496277l-150.29874 0l0 0c-6.3492126 0 -11.496277 -5.147064 -11.496277 -11.496277z" fill-rule="evenodd"/><path stroke="#000000" stroke-width="1.0" stroke-linejoin="round" stroke-linecap="butt" d="m475.27298 405.13147l0 0c0 -6.349243 5.147064 -11.496307 11.496277 -11.496307l150.29874 0c3.0490112 0 5.9731445 1.2112122 8.12915 3.3671875c2.1559448 2.1559753 3.3671875 5.0801086 3.3671875 8.12912l0 45.983795c0 6.3492126 -5.1470947 11.496277 -11.496338 11.496277l-150.29874 0l0 0c-6.3492126 0 -11.496277 -5.147064 -11.496277 -11.496277z" fill-rule="evenodd"/><path fill="#000000" fill-opacity="0.0" d="m256.5433 195.42548l0 0c0 -7.5871887 6.150635 -13.737808 13.7378235 -13.737808l375.422 0c3.6434937 0 7.1377563 1.4473724 9.714111 4.023712c2.576355 2.5763397 4.0236816 6.0706024 4.0236816 9.714096l0 54.94957c0 7.587204 -6.1505737 13.737808 -13.737793 13.737808l-375.422 0l0 0c-7.5871887 0 -13.7378235 -6.1506042 -13.7378235 -13.737808z" fill-rule="evenodd"/><path stroke="#000000" stroke-width="1.0" stroke-linejoin="round" stroke-linecap="butt" d="m256.5433 195.42548l0 0c0 -7.5871887 6.150635 -13.737808 13.7378235 -13.737808l375.422 0c3.6434937 0 7.1377563 1.4473724 9.714111 4.023712c2.576355 2.5763397 4.0236816 6.0706024 4.0236816 9.714096l0 54.94957c0 7.587204 -6.1505737 13.737808 -13.737793 13.737808l-375.422 0l0 0c-7.5871887 0 -13.7378235 -6.1506042 -13.7378235 -13.737808z" fill-rule="evenodd"/><path fill="#000000" fill-opacity="0.0" d="m256.5433 298.03702l0 0c0 -7.5871887 6.150635 -13.737793 13.7378235 -13.737793l375.422 0c3.6434937 0 7.1377563 1.4473572 9.714111 4.023712c2.576355 2.5763245 4.0236816 6.070587 4.0236816 9.714081l0 54.949585c0 7.5871887 -6.1505737 13.737793 -13.737793 13.737793l-375.422 0l0 0c-7.5871887 0 -13.7378235 -6.1506042 -13.7378235 -13.737793z" fill-rule="evenodd"/><path stroke="#000000" stroke-width="1.0" stroke-linejoin="round" stroke-linecap="butt" d="m256.5433 298.03702l0 0c0 -7.5871887 6.150635 -13.737793 13.7378235 -13.737793l375.422 0c3.6434937 0 7.1377563 1.4473572 9.714111 4.023712c2.576355 2.5763245 4.0236816 6.070587 4.0236816 9.714081l0 54.949585c0 7.5871887 -6.1505737 13.737793 -13.737793 13.737793l-375.422 0l0 0c-7.5871887 0 -13.7378235 -6.1506042 -13.7378235 -13.737793z" fill-rule="evenodd"/><path fill="#000000" fill-opacity="0.0" d="m256.5433 400.64856l0 0c0 -7.587158 6.150635 -13.737793 13.7378235 -13.737793l375.422 0c3.6434937 0 7.1377563 1.4473572 9.714111 4.023712c2.576355 2.5763245 4.0236816 6.070587 4.0236816 9.714081l0 54.949585c0 7.5871887 -6.1505737 13.7378235 -13.737793 13.7378235l-375.422 0l0 0c-7.5871887 0 -13.7378235 -6.150635 -13.7378235 -13.7378235z" fill-rule="evenodd"/><path stroke="#000000" stroke-width="1.0" stroke-linejoin="round" stroke-linecap="butt" d="m256.5433 400.64856l0 0c0 -7.587158 6.150635 -13.737793 13.7378235 -13.737793l375.422 0c3.6434937 0 7.1377563 1.4473572 9.714111 4.023712c2.576355 2.5763245 4.0236816 6.070587 4.0236816 9.714081l0 54.949585c0 7.5871887 -6.1505737 13.7378235 -13.737793 13.7378235l-375.422 0l0 0c-7.5871887 0 -13.7378235 -6.150635 -13.7378235 -13.7378235z" fill-rule="evenodd"/><path fill="#d9d2e9" d="m371.7953 80.20238l0 0c0 -7.587181 6.1506042 -13.737808 13.737793 -13.737808l375.422 0c3.6434937 0 7.1377563 1.4473724 9.714111 4.023712c2.576355 2.576332 4.0237427 6.0706024 4.0237427 9.714096l0 54.949585c0 7.5871735 -6.150635 13.737808 -13.737854 13.737808l-375.422 0l0 0c-7.5871887 0 -13.737793 -6.150635 -13.737793 -13.737808z" fill-rule="evenodd"/><path stroke="#000000" stroke-width="1.0" stroke-linejoin="round" stroke-linecap="butt" d="m371.7953 80.20238l0 0c0 -7.587181 6.1506042 -13.737808 13.737793 -13.737808l375.422 0c3.6434937 0 7.1377563 1.4473724 9.714111 4.023712c2.576355 2.576332 4.0237427 6.0706024 4.0237427 9.714096l0 54.949585c0 7.5871735 -6.150635 13.737808 -13.737854 13.737808l-375.422 0l0 0c-7.5871887 0 -13.737793 -6.150635 -13.737793 -13.737808z" fill-rule="evenodd"/><path fill="#000000" fill-opacity="0.0" d="m371.7953 107.67716c-145.52391 0 -276.6423 54.456703 -291.04782 108.91338c-14.40551 54.456696 87.901855 108.91339 175.80371 108.91339" fill-rule="evenodd"/><path stroke="#000000" stroke-width="2.0" stroke-linejoin="round" stroke-linecap="butt" d="m359.7959 107.800285l-1.5981445 0.03475952c-4.5163574 0.10469818 -9.015533 0.26091766 -13.494415 0.4669876c-8.957733 0.41214752 -17.834198 1.0237274 -26.604431 1.8214264c-17.540497 1.5954132 -34.656128 3.9353485 -51.146973 6.913452c-32.981735 5.9561996 -63.46457 14.465057 -89.84996 24.67569c-52.770775 20.421265 -89.15175 47.649597 -96.35451 74.877945c-14.40551 54.456696 87.901855 108.91339 175.80371 108.91339" fill-rule="evenodd"/><path fill="#000000" stroke="#000000" stroke-width="2.0" stroke-linecap="butt" d="m359.8298 111.103584l9.041809 -3.3964157l-9.109589 -3.210167z" fill-rule="evenodd"/></g></svg>